<svg xmlns="http://www.w3.org/2000/svg" viewBox="0 0 102 54" width="64" role="img" aria-label="Good">
  <path fill="currentColor" fill-rule="evenodd" d="M95.78 3.56c0-1.708 1.394-3.1 3.11-3.1S102 1.852 102 3.56v20.91c0 8.285-6.768 15.026-15.082 15.026-3.416 0-6.77-1.175-9.442-3.31-.93-.75-1.777-1.654-2.54-2.684-.76 1.024-1.605 1.928-2.537 2.668-2.666 2.134-6.013 3.308-9.43 3.308-4.107 0-7.52-1.373-10.147-4.085-2.367-2.438-4.01-5.92-4.874-10.35-.652-3.306-1.766-5.766-3.314-7.313-1.39-1.4-3.277-2.112-5.61-2.112-4.886 0-8.86 3.962-8.86 8.833 0 4.87 3.974 8.828 8.86 8.828 2.052 0 4.056-.717 5.65-2.026.64-.51 1.438-.748 2.243-.67.833.08 1.582.476 2.11 1.12.524.636.773 1.44.695 2.268-.08.822-.478 1.56-1.122 2.097-2.688 2.197-6.088 3.41-9.576 3.41-3.22 0-6.368-1.067-8.98-3.01-.402 4.214-2.258 8.166-5.325 11.218-3.33 3.315-7.845 5.363-12.728 5.768l-.2.007c-1.706-.01-3.093-1.41-3.096-3.13.017-1.623 1.305-2.97 2.905-3.058 7.152-.656 12.34-5.922 12.34-12.52v-10.3c0-4.872-3.97-8.834-8.86-8.834-4.885 0-8.858 3.962-8.858 8.833 0 4.87 3.973 8.828 8.858 8.828 1.013 0 2-.162 2.926-.488.777-.282 1.62-.24 2.388.11.75.356 1.317.99 1.606 1.79.268.783.224 1.62-.133 2.354-.36.75-.99 1.31-1.774 1.583-1.603.563-3.29.85-5.013.85C6.767 39.48 0 32.738 0 24.452 0 16.164 6.767 9.42 15.083 9.42c3.414 0 6.766 1.177 9.434 3.312.932.744 1.777 1.646 2.538 2.68.76-1.028 1.61-1.936 2.544-2.683 2.667-2.133 6.017-3.31 9.427-3.31 4.108 0 7.52 1.377 10.148 4.08 2.368 2.44 4.006 5.923 4.88 10.358.647 3.302 1.757 5.765 3.3 7.308 1.4 1.402 3.292 2.112 5.614 2.112 4.888 0 8.86-3.96 8.86-8.827 0-4.87-3.972-8.832-8.86-8.832-2.05 0-4.048.712-5.628 2.01-1.314 1.074-3.275.882-4.384-.434-1.075-1.32-.882-3.273.437-4.356 2.69-2.204 6.09-3.417 9.574-3.417 3.42 0 6.77 1.177 9.434 3.312.933.744 1.782 1.652 2.546 2.684.76-1.027 1.61-1.93 2.54-2.676 2.667-2.128 6.02-3.305 9.428-3.305 1.717 0 3.408.29 5.03.86.777.28 1.406.844 1.76 1.586.353.746.4 1.586.123 2.358-.275.785-.838 1.415-1.585 1.77-.75.357-1.595.402-2.386.127-.94-.332-1.928-.5-2.942-.5-4.89 0-8.865 3.962-8.865 8.834 0 4.868 3.976 8.83 8.865 8.83 4.883 0 8.86-3.962 8.86-8.83V3.56"/>
</svg>
